<?xml version="1.0" encoding="UTF-8"?>
<svg width="800px" height="800px" viewBox="0 0 800 800" version="1.1" xmlns="http://www.w3.org/2000/svg" xmlns:xlink="http://www.w3.org/1999/xlink">
    <!-- Generator: Sketch 43.1 (39012) - http://www.bohemiancoding.com/sketch -->
    <title>Icon</title>
    <desc>Created with Sketch.</desc>
    <defs></defs>
    <g id="App-icon-on-phone" stroke="none" stroke-width="1" fill="none" fill-rule="evenodd">
        <g id="H.09-Green-on-gray-bg" transform="translate(-112.000000, -112.000000)">
            <g id="Icon" transform="translate(112.000000, 112.000000)">
                <path d="M609.375,1.3636435e-14 C725,1.3636435e-14 800,75 800,190.625 L800,609.375 C800,725 725,800 609.375,800 L190.625,800 C75,800 0,725 0,609.375 L0,190.625 C0,75 75,1.3636435e-14 190.625,1.3636435e-14 L609.375,1.3636435e-14 Z" id="App-Icon-Shape-Copy" fill="#424242"></path>
                <g id="Group" transform="translate(399.513546, 409.513546) rotate(-135.000000) translate(-399.513546, -409.513546) translate(169.013546, 124.513546)" fill="#76FE03">
                    <path d="M285,459.397569 C285.200465,459.398244 285.401009,459.398582 285.601632,459.398582 C382.155743,459.398582 460.428315,381.12601 460.428315,284.571899 C460.428315,188.017789 382.155743,109.745217 285.601632,109.745217 C285.401009,109.745217 285.200465,109.745555 285,109.74623 L285,459.397641 Z" id="Combined-Shape"></path>
                    <path d="M1.92702224e-08,569.143176 C0.200495387,569.143591 0.401039433,569.143799 0.601631954,569.143799 C157.766352,569.143799 285.173531,441.73662 285.173531,284.571899 C285.173531,127.407179 157.766352,6.82121026e-13 0.601631954,6.82121026e-13 C0.401039433,6.82121026e-13 0.200495387,0.000207545464 1.92702235e-08,0.000622433364 L3.0877743e-08,109.746158 C0.200464697,109.745555 0.401008861,109.745217 0.601631954,109.745217 C97.1557426,109.745217 175.428315,188.017789 175.428315,284.571899 C175.428315,381.12601 97.1557426,459.398582 0.601631954,459.398582 C0.401008861,459.398582 0.200464697,459.398244 1.92623695e-14,459.397569 L3.0877743e-08,569.143221 Z" id="Combined-Shape-Copy" transform="translate(142.586766, 284.571899) rotate(-180.000000) translate(-142.586766, -284.571899) "></path>
                </g>
            </g>
        </g>
    </g>
</svg>